<?xml version="1.0" encoding="UTF-8" standalone="no"?>
<svg
   xmlns:dc="http://purl.org/dc/elements/1.1/"
   xmlns:cc="http://creativecommons.org/ns#"
   xmlns:rdf="http://www.w3.org/1999/02/22-rdf-syntax-ns#"
   xmlns:svg="http://www.w3.org/2000/svg"
   xmlns="http://www.w3.org/2000/svg"
   xmlns:sodipodi="http://sodipodi.sourceforge.net/DTD/sodipodi-0.dtd"
   xmlns:inkscape="http://www.inkscape.org/namespaces/inkscape"
   sodipodi:docname="derp.svg"
   inkscape:version="1.0 (4035a4fb49, 2020-05-01)"
   id="svg26"
   version="1.1"
   viewBox="0 0 70 70"
   height="70mm"
   width="70mm">
  <defs
     id="defs20" />
  <sodipodi:namedview
     inkscape:window-maximized="1"
     inkscape:window-y="0"
     inkscape:window-x="1280"
     inkscape:window-height="1056"
     inkscape:window-width="1920"
     showgrid="false"
     inkscape:document-rotation="0"
     inkscape:current-layer="layer1"
     inkscape:document-units="mm"
     inkscape:cy="186.02265"
     inkscape:cx="210.88075"
     inkscape:zoom="1.979899"
     inkscape:pageshadow="2"
     inkscape:pageopacity="0.0"
     borderopacity="1.0"
     bordercolor="#666666"
     pagecolor="#ffffff"
     id="base" />
  <metadata
     id="metadata23">
    <rdf:RDF>
      <cc:Work
         rdf:about="">
        <dc:format>image/svg+xml</dc:format>
        <dc:type
           rdf:resource="http://purl.org/dc/dcmitype/StillImage" />
        <dc:title></dc:title>
      </cc:Work>
    </rdf:RDF>
  </metadata>
  <g
     id="layer1"
     inkscape:groupmode="layer"
     inkscape:label="Layer 1">
    <g
       transform="matrix(0.00778178,0,0,-0.00778178,0.28034479,69.943673)"
       fill="#000000"
       stroke="none"
       id="g12">
      <path
         d="m 4840,8934 c -101,-26 -221,-49 -335,-64 -38,-5 -112,-17 -162,-25 -51,-8 -137,-22 -190,-31 -212,-34 -405,-75 -469,-98 -22,-8 -108,-48 -190,-89 -82,-40 -160,-77 -174,-82 -102,-33 -134,-38 -360,-64 -161,-19 -301,-75 -480,-193 -122,-81 -401,-366 -553,-566 -48,-63 -160,-203 -198,-246 -19,-23 -48,-59 -64,-81 -16,-22 -66,-80 -110,-130 -45,-49 -88,-100 -97,-113 -21,-30 -159,-188 -282,-320 -54,-59 -115,-127 -134,-152 -44,-55 -313,-330 -363,-370 l -35,-29 v 117 c 1,105 -2,122 -23,167 l -25,50 -9,-140 c -6,-95 -16,-171 -34,-235 -14,-52 -29,-113 -34,-135 -5,-22 -23,-74 -38,-115 -81,-209 -141,-442 -141,-544 0,-68 9,-86 40,-86 48,0 60,26 60,128 0,55 4,92 10,92 6,0 10,-3 10,-7 0,-5 11,-21 25,-37 22,-25 25,-39 25,-100 0,-91 -25,-168 -121,-371 -77,-162 -108,-247 -128,-350 -12,-59 -10,-510 5,-814 4,-100 2,-133 -11,-166 -19,-50 -67,-100 -89,-92 -20,8 -20,21 -1,252 8,99 15,216 15,260 0,44 5,96 10,116 27,95 46,924 26,1074 -9,68 -44,194 -59,213 -15,19 -44,14 -67,-10 -20,-22 -20,-27 -20,-1324 0,-921 3,-1311 11,-1331 6,-15 14,-50 19,-78 4,-27 12,-70 18,-95 6,-25 16,-70 21,-100 5,-30 15,-80 22,-110 14,-66 35,-196 49,-305 6,-44 17,-123 25,-175 8,-53 15,-117 15,-144 0,-43 5,-52 48,-99 27,-29 62,-72 79,-97 53,-79 143,-232 143,-244 0,-7 4,-16 9,-22 37,-38 221,-569 260,-749 6,-27 20,-81 31,-120 43,-146 74,-259 116,-415 14,-52 30,-100 36,-107 12,-15 118,-18 118,-3 0,5 -12,40 -26,77 -45,117 -51,136 -77,223 -33,106 -61,214 -81,305 -8,39 -21,94 -27,122 -7,29 -10,56 -6,59 27,27 214,-153 358,-346 166,-223 311,-333 489,-375 41,-10 81,-19 88,-21 7,-2 17,-15 22,-29 l 10,-25 h 152 l 153,1 -135,67 c -363,182 -639,410 -928,765 -142,174 -159,203 -166,287 -18,195 -70,373 -225,767 -149,381 -179,505 -181,743 -1,116 -22,193 -94,340 -87,179 -91,212 -90,655 0,332 9,521 40,815 30,294 58,404 199,770 96,249 126,372 132,540 3,79 1,160 -6,194 l -11,59 128,131 c 164,169 350,378 817,921 208,242 419,485 468,540 49,55 143,172 209,259 185,243 278,328 393,361 28,8 97,19 155,25 236,25 301,50 515,200 79,55 163,109 188,120 69,31 171,48 420,70 266,24 320,33 607,105 359,90 423,99 665,99 227,0 284,-8 407,-60 241,-101 762,-453 976,-659 124,-118 125,-120 133,-250 8,-134 15,-150 134,-295 114,-139 166,-243 173,-343 l 4,-73 54,4 c 44,4 64,-1 107,-22 124,-60 265,-251 331,-448 41,-122 36,-132 -38,-67 -37,33 -60,69 -111,173 -86,176 -126,221 -222,250 -21,7 -23,4 -23,-37 0,-86 53,-217 136,-334 24,-34 104,-133 177,-221 163,-196 212,-268 282,-414 68,-142 123,-308 220,-663 100,-365 120,-431 227,-735 202,-576 294,-916 333,-1233 17,-139 19,-415 5,-792 -10,-267 -2,-478 25,-650 56,-365 45,-424 -137,-730 C 8276,984 8246,909 8150,560 8072,272 8044,183 8009,96 c -16,-39 -29,-72 -29,-74 0,-1 39,-1 87,0 103,4 91,-11 153,183 46,145 78,221 240,565 45,96 93,198 106,225 39,83 113,263 120,292 4,15 13,38 20,52 8,14 14,36 14,48 0,12 4,24 9,28 5,3 15,31 21,63 16,78 36,122 54,122 14,0 16,31 16,250 v 251 l -61,65 c -124,133 -155,274 -125,564 16,157 28,252 47,370 7,41 9,235 6,535 -5,503 -19,852 -36,898 -6,16 -11,49 -11,75 0,26 -7,76 -16,112 -8,36 -19,85 -24,109 -6,24 -14,49 -19,55 -4,6 -11,24 -15,40 -11,44 -90,213 -154,327 -64,115 -123,211 -179,291 -29,42 -53,80 -53,85 -1,4 -14,24 -30,43 -17,19 -30,37 -30,41 0,7 -41,70 -91,140 -13,19 -29,43 -36,54 -105,175 -184,339 -221,460 -36,117 -72,270 -72,307 0,14 -7,45 -15,68 -8,23 -15,54 -15,68 0,39 -48,189 -82,257 -60,118 -130,205 -324,406 -108,112 -208,220 -223,239 -27,36 -72,92 -209,259 -204,248 -475,517 -662,655 -238,178 -431,261 -672,292 -38,5 -48,10 -48,25 0,18 -12,19 -257,18 -239,-1 -265,-2 -353,-25 z M 8240,5304 c 55,-108 121,-243 145,-300 78,-182 119,-378 113,-534 l -3,-75 -34,95 c -18,52 -69,187 -113,300 -44,113 -96,250 -115,305 -49,145 -114,405 -100,405 3,0 51,-88 107,-196 z M 250,2916 c 68,-150 149,-416 244,-806 66,-272 135,-512 182,-633 18,-49 34,-94 34,-100 0,-18 -69,53 -110,113 -116,170 -209,445 -289,860 -24,124 -101,600 -101,624 0,19 15,-2 40,-58 z"
         id="path4" />
      <path
         d="m 5790,7491 c -59,-11 -122,-29 -136,-38 -6,-5 -19,-35 -28,-68 -27,-93 -98,-233 -167,-326 -35,-46 -151,-174 -258,-284 -260,-266 -334,-366 -391,-535 -32,-93 -40,-323 -15,-401 65,-199 343,-614 524,-780 266,-247 745,-369 1443,-369 h 258 l 73,36 c 167,84 320,213 402,338 218,334 144,814 -207,1340 -173,259 -514,661 -708,834 -165,147 -255,198 -406,232 -99,22 -314,34 -384,21 z m 474,-185 c 122,-46 196,-112 247,-220 46,-96 43,-102 -47,-109 -92,-7 -174,-44 -216,-97 -55,-69 -88,-218 -88,-392 0,-77 1,-79 40,-121 87,-95 207,-133 477,-149 284,-18 299,-8 296,194 -1,65 2,120 7,123 10,6 130,-135 187,-220 118,-176 205,-366 255,-555 40,-150 50,-355 24,-474 -46,-206 -189,-362 -397,-432 -221,-75 -585,-74 -929,2 -261,58 -534,172 -683,285 -122,92 -257,260 -377,470 -101,177 -133,260 -138,360 -14,273 135,532 484,843 50,45 187,156 305,248 118,92 247,196 287,231 l 72,65 64,-14 c 35,-7 93,-24 130,-38 z"
         id="path6" />
      <path
         d="m 2385,6231 c -244,-29 -480,-114 -675,-244 -102,-67 -294,-263 -346,-353 -106,-180 -144,-311 -151,-515 -6,-175 0,-203 92,-399 83,-178 108,-260 109,-369 1,-47 -3,-110 -7,-140 l -8,-53 84,-83 c 168,-166 351,-278 542,-331 224,-63 522,-22 699,97 157,105 455,418 670,704 275,365 360,552 373,816 7,138 -5,200 -49,253 -35,43 -67,61 -125,71 -52,8 -52,12 -17,-138 33,-139 37,-298 11,-396 -36,-135 -179,-362 -381,-608 -121,-146 -430,-454 -544,-541 -161,-123 -231,-146 -447,-145 -224,1 -370,56 -505,193 -113,113 -172,229 -205,405 -19,96 -30,270 -21,328 l 7,47 h 83 c 195,0 339,77 408,218 30,61 33,74 33,162 0,82 -4,103 -27,152 -64,137 -221,228 -393,228 -30,0 -55,4 -55,9 0,21 271,280 355,339 190,134 336,185 535,185 143,1 214,-15 320,-68 127,-64 208,-140 407,-382 130,-159 194,-223 279,-280 51,-34 77,-36 88,-7 9,23 -9,50 -85,131 -38,39 -69,81 -69,92 0,22 40,49 112,76 57,21 98,59 98,91 0,30 -127,147 -251,230 -155,104 -304,164 -503,205 -113,23 -330,32 -441,20 z"
         id="path8" />
      <path
         d="m 5963,3041 c -18,-11 -36,-33 -40,-48 -12,-44 -9,-347 6,-591 16,-251 11,-404 -15,-453 -27,-54 -113,-127 -197,-169 -89,-45 -171,-71 -302,-96 -124,-25 -423,-24 -554,0 -270,50 -470,158 -544,294 -15,28 -47,109 -72,182 -59,172 -91,222 -167,261 -56,29 -64,25 -87,-37 -84,-222 -10,-458 213,-679 139,-139 308,-237 469,-275 152,-35 265,-45 527,-45 280,0 361,11 483,62 156,66 316,202 457,388 l 69,90 3,235 c 6,583 1,660 -58,791 -43,96 -122,133 -191,90 z"
         id="path10" />
    </g>
  </g>
</svg>
