<?xml version="1.0" encoding="UTF-8" standalone="no"?>
<svg
   xmlns:dc="http://purl.org/dc/elements/1.1/"
   xmlns:cc="http://creativecommons.org/ns#"
   xmlns:rdf="http://www.w3.org/1999/02/22-rdf-syntax-ns#"
   xmlns:svg="http://www.w3.org/2000/svg"
   xmlns="http://www.w3.org/2000/svg"
   xmlns:sodipodi="http://sodipodi.sourceforge.net/DTD/sodipodi-0.dtd"
   xmlns:inkscape="http://www.inkscape.org/namespaces/inkscape"
   sodipodi:docname="hello.svg"
   inkscape:version="1.0 (4035a4fb49, 2020-05-01)"
   id="svg8"
   version="1.1"
   viewBox="0 0 70 70"
   height="70mm"
   width="70mm">
  <defs
     id="defs2" />
  <sodipodi:namedview
     inkscape:window-maximized="1"
     inkscape:window-y="307"
     inkscape:window-x="0"
     inkscape:window-height="749"
     inkscape:window-width="1280"
     showgrid="false"
     inkscape:document-rotation="0"
     inkscape:current-layer="text171"
     inkscape:document-units="mm"
     inkscape:cy="130.81951"
     inkscape:cx="144.76943"
     inkscape:zoom="1.979899"
     inkscape:pageshadow="2"
     inkscape:pageopacity="0.0"
     borderopacity="1.0"
     bordercolor="#666666"
     pagecolor="#ffffff"
     id="base" />
  <metadata
     id="metadata5">
    <rdf:RDF>
      <cc:Work
         rdf:about="">
        <dc:format>image/svg+xml</dc:format>
        <dc:type
           rdf:resource="http://purl.org/dc/dcmitype/StillImage" />
        <dc:title />
      </cc:Work>
    </rdf:RDF>
  </metadata>
  <g
     id="layer1"
     inkscape:groupmode="layer"
     inkscape:label="Layer 1">
    <g
       id="g137"
       transform="matrix(0.10986026,0,0,0.10986026,7.7298047,0.56476772)">
      <g
         id="g78"
         transform="translate(0,-540.36)">
        <g
           id="g76">
          <g
             id="g74">
            <path
               id="path70"
               d="m 290.42,619.51 c -5.399,-1.1 -10.698,2.301 -11.898,7.703 -1.1,5.402 2.3,10.704 7.698,11.904 22.496,4.902 42.192,17.306 56.989,36.113 2,2.501 4.899,3.801 7.898,3.801 2.2,0 4.299,-0.7 6.099,-2.301 4.299,-3.401 4.999,-9.704 1.6,-14.005 C 341.11,640.318 317.415,625.312 290.42,619.51 Z" />
            <path
               id="path72"
               d="m 409.997,829.588 c 22.796,-39.014 28.894,-84.331 17.197,-127.747 -11.698,-43.316 -39.692,-79.529 -78.985,-101.738 -53.09,-30.111 -115.878,-28.811 -166.168,-2.101 l -35.793,-53.22 c -3.099,-4.602 -9.298,-5.802 -13.897,-2.701 -4.599,3.101 -5.799,9.303 -2.7,13.905 l 12.598,18.707 c -42.292,29.411 -72.086,72.527 -84.284,122.245 -12.997,53.12 -4.599,108.14 23.695,154.957 27.895,46.917 72.786,80.53 126.376,94.735 13.297,3.501 26.695,5.702 40.192,6.702 v 52.019 H 186.24 c -5.499,0 -9.998,4.502 -9.998,10.004 0,5.502 4.499,10.004 9.998,10.004 h 143.972 c 5.499,0 9.998,-4.502 9.998,-10.004 0,-5.502 -4.499,-10.004 -9.998,-10.004 h -61.988 v -51.519 c 31.094,-0.7 61.688,-8.303 89.883,-22.408 l 13.797,20.107 c 1.9,2.801 5.099,4.302 8.298,4.302 1.9,0 3.899,-0.6 5.599,-1.801 4.599,-3.101 5.699,-9.303 2.599,-13.905 l -35.593,-52.019 c 23.396,-14.304 43.093,-34.211 57.19,-58.52 z m -63.288,84.931 C 258.226,957.035 149.047,925.723 98.857,841.492 47.467,756.361 71.662,648.321 153.447,591.2 l 11.598,17.206 c -19.596,13.605 -36.593,31.512 -49.291,53.22 -22.596,38.614 -28.595,83.531 -17.097,126.547 11.698,43.416 39.992,79.729 79.585,102.238 26.395,15.006 55.589,22.608 85.184,22.608 14.597,0 29.194,-1.901 43.592,-5.602 9.698,-2.501 19.096,-5.902 27.995,-9.904 z m -83.484,-21.608 c -25.495,0 -51.39,-6.402 -75.086,-19.807 -34.893,-19.807 -59.888,-51.819 -70.187,-90.033 -10.198,-37.814 -4.799,-77.229 14.997,-111.241 27.795,-47.518 78.385,-74.127 130.475,-74.127 25.495,0 51.29,6.402 74.986,19.807 34.593,19.607 59.289,51.419 69.487,89.533 10.298,38.214 4.899,78.129 -15.197,112.442 -27.395,47.116 -77.685,73.426 -129.475,73.426 z" />
          </g>
        </g>
      </g>
      <g
         id="g80" />
      <g
         id="g82" />
      <g
         id="g84" />
      <g
         id="g86" />
      <g
         id="g88" />
      <g
         id="g90" />
      <g
         id="g92" />
      <g
         id="g94" />
      <g
         id="g96" />
      <g
         id="g98" />
      <g
         id="g100" />
      <g
         id="g102" />
      <g
         id="g104" />
      <g
         id="g106" />
      <g
         id="g108" />
    </g>
    <g
       aria-label="Hello Globe!"
       id="text141"
       style="font-style:normal;font-weight:normal;font-size:10.5833px;line-height:1.25;font-family:sans-serif;fill:#000000;fill-opacity:1;stroke:none;stroke-width:0.264583" />
    <g
       style="font-style:normal;font-weight:normal;font-size:14.1111px;line-height:1.25;font-family:sans-serif;fill:#000000;fill-opacity:1;stroke:none;stroke-width:0.264583"
       id="text171"
       aria-label="Hello Globe">
      <path
         id="path173"
         style="font-style:normal;font-variant:normal;font-weight:normal;font-stretch:normal;font-size:14.1111px;font-family:'Crimson Text';-inkscape-font-specification:'Crimson Text';stroke-width:0.264583"
         d="m 8.6061868,66.555009 v -2.425345 q 0,0 -0.027561,-0.05512 -1.2953549,-0.02756 -2.0394949,-0.02756 -2.1221772,0 -2.1221772,0.0689 v 2.384004 q 0,0.799261 0.1240234,1.281574 0.027561,0.09646 0.3858504,0.192926 0.3582896,0.08268 0.4960933,0.08268 0.041341,0 0.041341,0.165364 0.01378,0.165365 -0.01378,0.234267 -1.3780372,-0.0689 -1.5985231,-0.0689 -0.068902,0 -1.6536446,0.0689 -0.055121,-0.05512 -0.055121,-0.206706 0,-0.192925 0.055121,-0.192925 0.1791449,0 0.5236541,-0.08268 0.3582897,-0.08268 0.3996308,-0.192926 0.096463,-0.37207 0.096463,-1.226453 v -5.346784 q 0,-0.854383 -0.096463,-1.226453 -0.041341,-0.110243 -0.3996308,-0.192925 -0.3445092,-0.09646 -0.5236541,-0.09646 -0.055121,0 -0.055121,-0.179144 0,-0.165365 0.055121,-0.220486 0.1791449,0.01378 0.7303597,0.05512 0.5512149,0.02756 0.9232849,0.02756 0.2756074,0 0.5374345,-0.01378 0.261827,-0.01378 0.5649952,-0.02756 0.3031682,-0.02756 0.4960934,-0.04134 0.027561,0.05512 0.01378,0.234266 0,0.165364 -0.041341,0.165364 -0.1378037,0 -0.4960933,0.09646 -0.3582897,0.09646 -0.3858504,0.192925 -0.1240234,0.482313 -0.1240234,1.281575 v 2.053275 l 0.027561,0.04134 q 1.3504763,0.02756 2.0946164,0.02756 0.7992615,0 2.0394949,-0.02756 0.027561,-0.02756 0.027561,-0.05512 v -2.094617 q 0,-0.854383 -0.096463,-1.226453 -0.041341,-0.110243 -0.3996308,-0.192925 -0.3445093,-0.09646 -0.5236541,-0.09646 -0.055122,0 -0.055122,-0.165364 0,-0.179145 0.055122,-0.234266 0.1653645,0.01378 0.7303597,0.05512 0.5649952,0.02756 0.9370652,0.02756 0.2618271,0 0.5236541,-0.01378 0.2618267,-0.01378 0.5512147,-0.02756 0.303168,-0.02756 0.496094,-0.04134 0.02756,0.08268 0.02756,0.206705 0,0.192925 -0.05512,0.192925 -0.137804,0 -0.496094,0.09646 -0.3582892,0.09646 -0.3858499,0.192925 -0.110243,0.427192 -0.110243,1.281575 v 5.236541 q 0,0.854383 0.110243,1.281574 0.027561,0.09646 0.3858499,0.192926 0.35829,0.08268 0.496094,0.08268 0.05512,0 0.05512,0.206705 0,0.110243 -0.02756,0.192926 -1.3780376,-0.0689 -1.5709628,-0.0689 -0.082682,0 -1.6674249,0.0689 -0.055122,-0.05512 -0.055122,-0.220486 0,-0.179145 0.055122,-0.179145 0.1791448,0 0.5236541,-0.08268 0.3582897,-0.08268 0.3996308,-0.192926 0.096463,-0.37207 0.096463,-1.226453 z" />
      <path
         id="path175"
         style="font-style:normal;font-variant:normal;font-weight:normal;font-stretch:normal;font-size:14.1111px;font-family:'Crimson Text';-inkscape-font-specification:'Crimson Text';stroke-width:0.264583"
         d="m 14.462845,62.916991 q -0.71658,0 -1.10243,0.620117 -0.37207,0.606336 -0.37207,1.005967 0,0.09646 0.08268,0.09646 h 2.687172 q 0.0689,0 0.0689,-0.137804 0,-0.440972 -0.37207,-1.005967 -0.37207,-0.578776 -0.992186,-0.578776 z m 0.137803,-0.509873 q 0.633897,0 1.11621,0.248046 0.482313,0.234267 0.73036,0.620117 0.261827,0.37207 0.37207,0.771701 0.124023,0.38585 0.124023,0.771701 0,0.275607 -0.08268,0.344509 -0.08268,0.05512 -0.316948,0.05512 h -3.472654 q -0.110243,0 -0.110243,0.0689 0,0.868164 0.523654,1.598523 0.523654,0.73036 1.515841,0.73036 0.289388,0 0.551215,-0.05512 0.261827,-0.05512 0.440972,-0.124023 0.192925,-0.08268 0.316948,-0.151584 0.137804,-0.08268 0.234267,-0.151584 l 0.09646,-0.0689 q 0.08268,0 0.08268,0.179145 0,0.110243 -0.08268,0.248047 -0.275607,0.38585 -0.813042,0.702799 -0.537434,0.303168 -1.171331,0.303168 -1.143771,0 -1.970593,-0.854383 -0.813042,-0.868164 -0.813042,-2.108397 0,-1.446939 0.771701,-2.287542 0.785481,-0.840602 1.956812,-0.840602 z" />
      <path
         id="path177"
         style="font-style:normal;font-variant:normal;font-weight:normal;font-stretch:normal;font-size:14.1111px;font-family:'Crimson Text';-inkscape-font-specification:'Crimson Text';stroke-width:0.264583"
         d="m 18.486712,66.816836 v -5.9669 q 0,-0.468533 -0.08268,-0.881944 -0.0689,-0.220486 -0.702799,-0.220486 h -0.124023 q -0.08268,0 -0.08268,-0.151584 0,-0.220486 0.08268,-0.220486 0.413411,-0.04134 0.75792,-0.110243 0.35829,-0.0689 0.551215,-0.137804 0.206706,-0.0689 0.344509,-0.124023 0.137804,-0.0689 0.206706,-0.110243 l 0.05512,-0.04134 h 0.02756 q 0.05512,0 0.110243,0.08268 0.05512,0.0689 0.0689,0.137804 -0.151584,0.440972 -0.151584,1.198892 v 6.283849 q 0,0.799262 0.110243,1.226453 0.02756,0.09646 0.35829,0.192926 0.330729,0.08268 0.468532,0.08268 0.04134,0 0.05512,0.165364 0.01378,0.165365 -0.01378,0.234267 -1.378037,-0.0689 -1.474499,-0.0689 -0.08268,0 -1.502061,0.0689 -0.05512,-0.05512 -0.05512,-0.220486 0,-0.179145 0.05512,-0.179145 0.165365,0 0.482313,-0.08268 0.330729,-0.09646 0.35829,-0.192926 0.09646,-0.39963 0.09646,-0.964626 z" />
      <path
         id="path179"
         style="font-style:normal;font-variant:normal;font-weight:normal;font-stretch:normal;font-size:14.1111px;font-family:'Crimson Text';-inkscape-font-specification:'Crimson Text';stroke-width:0.264583"
         d="m 21.945586,66.816836 v -5.9669 q 0,-0.468533 -0.08268,-0.881944 -0.0689,-0.220486 -0.702799,-0.220486 h -0.124023 q -0.08268,0 -0.08268,-0.151584 0,-0.220486 0.08268,-0.220486 0.413411,-0.04134 0.75792,-0.110243 0.35829,-0.0689 0.551215,-0.137804 0.206705,-0.0689 0.344509,-0.124023 0.137804,-0.0689 0.206706,-0.110243 l 0.05512,-0.04134 h 0.02756 q 0.05512,0 0.110243,0.08268 0.05512,0.0689 0.0689,0.137804 -0.151584,0.440972 -0.151584,1.198892 v 6.283849 q 0,0.799262 0.110243,1.226453 0.02756,0.09646 0.358289,0.192926 0.330729,0.08268 0.468533,0.08268 0.04134,0 0.05512,0.165364 0.01378,0.165365 -0.01378,0.234267 -1.378037,-0.0689 -1.4745,-0.0689 -0.08268,0 -1.50206,0.0689 -0.05512,-0.05512 -0.05512,-0.220486 0,-0.179145 0.05512,-0.179145 0.165364,0 0.482313,-0.08268 0.330729,-0.09646 0.35829,-0.192926 0.09646,-0.39963 0.09646,-0.964626 z" />
      <path
         id="path181"
         style="font-style:normal;font-variant:normal;font-weight:normal;font-stretch:normal;font-size:14.1111px;font-family:'Crimson Text';-inkscape-font-specification:'Crimson Text';stroke-width:0.264583"
         d="m 27.554198,62.930772 q -0.73036,0 -1.198892,0.675238 -0.454753,0.661458 -0.454753,1.626084 0,1.12999 0.578776,1.943032 0.592556,0.799262 1.378037,0.799262 0.73036,0 1.198892,-0.689019 0.468533,-0.689019 0.468533,-1.653645 0,-1.11621 -0.592556,-1.901691 -0.592556,-0.799261 -1.378037,-0.799261 z m 0.151584,-0.537435 q 1.240233,0 2.122177,0.895724 0.881944,0.895725 0.881944,2.149738 0,1.267794 -0.868164,2.177299 -0.854383,0.895724 -2.108396,0.895724 -1.254014,0 -2.135958,-0.895724 -0.881944,-0.909505 -0.881944,-2.177299 0,-1.281574 0.854383,-2.163518 0.854383,-0.881944 2.135958,-0.881944 z" />
      <path
         id="path183"
         style="font-style:normal;font-variant:normal;font-weight:normal;font-stretch:normal;font-size:14.1111px;font-family:'Crimson Text';-inkscape-font-specification:'Crimson Text';stroke-width:0.264583"
         d="m 34.995597,63.97808 q 0,-1.956813 1.309135,-3.34863 1.309135,-1.405598 3.210827,-1.405598 0.978406,0 3.265948,0.620117 0.05512,1.570962 0.05512,1.708766 0,0.206705 -0.289388,0.206705 -0.137803,0 -0.179144,-0.0689 -0.372071,-1.887911 -2.811196,-1.887911 -1.378037,0 -2.301322,1.171332 -0.923285,1.171332 -0.923285,2.824976 0,1.529621 1.005967,2.824976 1.019747,1.281575 2.549369,1.281575 1.212672,0 1.791448,-0.303168 0.09646,-0.04134 0.09646,-0.206706 l -0.01378,-1.12999 v -0.09646 q 0,-0.895724 -0.110243,-1.185112 -0.05512,-0.137804 -0.454752,-0.220486 -0.38585,-0.08268 -0.606336,-0.08268 -0.05512,0 -0.05512,-0.165365 0,-0.179144 0.05512,-0.234266 1.763887,0.0689 1.805228,0.0689 0.110243,0 1.48828,-0.0689 0.02756,0.08268 0.02756,0.192925 0,0.206706 -0.05512,0.206706 -0.08268,0 -0.385851,0.09646 -0.289388,0.08268 -0.413411,0.151585 -0.137804,0.09646 -0.137804,0.923284 0,0.289388 0.01378,0.633898 0.02756,0.330728 0.02756,0.358289 0,0.248047 0.09646,0.482313 0.09646,0.234266 0.09646,0.275608 0,0.110243 -0.34451,0.248046 -0.02756,0.01378 -0.275607,0.110243 -0.234266,0.08268 -0.303168,0.110243 -0.0689,0.02756 -0.316949,0.110243 -0.234266,0.0689 -0.38585,0.09646 -0.137804,0.02756 -0.413411,0.08268 -0.261827,0.05512 -0.509874,0.0689 -0.234266,0.02756 -0.564995,0.04134 -0.316949,0.02756 -0.675238,0.02756 -1.819009,0 -3.100584,-1.336696 -1.267794,-1.336696 -1.267794,-3.183266 z" />
      <path
         id="path185"
         style="font-style:normal;font-variant:normal;font-weight:normal;font-stretch:normal;font-size:14.1111px;font-family:'Crimson Text';-inkscape-font-specification:'Crimson Text';stroke-width:0.264583"
         d="m 45.441119,66.816836 v -5.9669 q 0,-0.468533 -0.08268,-0.881944 -0.0689,-0.220486 -0.702799,-0.220486 h -0.124023 q -0.08268,0 -0.08268,-0.151584 0,-0.220486 0.08268,-0.220486 0.413411,-0.04134 0.75792,-0.110243 0.35829,-0.0689 0.551215,-0.137804 0.206705,-0.0689 0.344509,-0.124023 0.137804,-0.0689 0.206706,-0.110243 l 0.05512,-0.04134 h 0.02756 q 0.05512,0 0.110243,0.08268 0.05512,0.0689 0.0689,0.137804 -0.151584,0.440972 -0.151584,1.198892 v 6.283849 q 0,0.799262 0.110243,1.226453 0.02756,0.09646 0.358289,0.192926 0.330729,0.08268 0.468533,0.08268 0.04134,0 0.05512,0.165364 0.01378,0.165365 -0.01378,0.234267 -1.378037,-0.0689 -1.4745,-0.0689 -0.08268,0 -1.50206,0.0689 -0.05512,-0.05512 -0.05512,-0.220486 0,-0.179145 0.05512,-0.179145 0.165364,0 0.482313,-0.08268 0.330729,-0.09646 0.35829,-0.192926 0.09646,-0.39963 0.09646,-0.964626 z" />
      <path
         id="path187"
         style="font-style:normal;font-variant:normal;font-weight:normal;font-stretch:normal;font-size:14.1111px;font-family:'Crimson Text';-inkscape-font-specification:'Crimson Text';stroke-width:0.264583"
         d="m 51.049731,62.930772 q -0.73036,0 -1.198892,0.675238 -0.454753,0.661458 -0.454753,1.626084 0,1.12999 0.578776,1.943032 0.592556,0.799262 1.378037,0.799262 0.73036,0 1.198892,-0.689019 0.468533,-0.689019 0.468533,-1.653645 0,-1.11621 -0.592556,-1.901691 -0.592556,-0.799261 -1.378037,-0.799261 z m 0.151584,-0.537435 q 1.240233,0 2.122177,0.895724 0.881944,0.895725 0.881944,2.149738 0,1.267794 -0.868164,2.177299 -0.854383,0.895724 -2.108396,0.895724 -1.254014,0 -2.135958,-0.895724 -0.881944,-0.909505 -0.881944,-2.177299 0,-1.281574 0.854383,-2.163518 0.854383,-0.881944 2.135958,-0.881944 z" />
      <path
         id="path189"
         style="font-style:normal;font-variant:normal;font-weight:normal;font-stretch:normal;font-size:14.1111px;font-family:'Crimson Text';-inkscape-font-specification:'Crimson Text';stroke-width:0.264583"
         d="m 58.256864,62.379557 q 1.322916,0 2.067056,0.909504 0.75792,0.895725 0.75792,1.915472 0,1.309135 -0.978406,2.301322 -0.964626,0.992187 -2.135958,0.992187 -0.509873,0 -0.978406,-0.08268 -0.454752,-0.09646 -0.523654,-0.09646 -0.124024,0 -0.316949,0.08268 -0.179145,0.0689 -0.206705,0.0689 -0.05512,0 -0.179145,-0.04134 -0.110243,-0.04134 -0.110243,-0.09646 0,-0.01378 0.04134,-0.220486 0.04134,-0.220486 0.08268,-0.633897 0.04134,-0.413411 0.04134,-0.923285 v -5.705073 q 0,-0.468533 -0.08268,-0.881944 -0.0689,-0.220486 -0.702799,-0.220486 h -0.124023 q -0.08268,0 -0.08268,-0.151584 0,-0.220486 0.08268,-0.220486 0.413411,-0.04134 0.75792,-0.110243 0.35829,-0.0689 0.551215,-0.137804 0.206706,-0.0689 0.344509,-0.124023 0.137804,-0.0689 0.206706,-0.110243 l 0.05512,-0.04134 h 0.02756 q 0.05512,0 0.110243,0.08268 0.05512,0.0689 0.0689,0.137804 -0.151584,0.440972 -0.151584,1.198892 v 2.411565 q 0,0.151584 0.04134,0.151584 0.01378,0 0.04134,-0.01378 0.192925,-0.137804 0.592556,-0.289388 0.399631,-0.151584 0.702799,-0.151584 z m -0.440972,0.675238 q -0.38585,0 -0.661458,0.220486 -0.275607,0.206706 -0.275607,0.606336 v 3.210827 q 0,0.427191 0.399631,0.633897 0.413411,0.192925 0.950845,0.192925 0.785481,0 1.226453,-0.74414 0.440972,-0.74414 0.440972,-1.681205 0,-1.08865 -0.578775,-1.763888 -0.564996,-0.675238 -1.502061,-0.675238 z" />
      <path
         id="path191"
         style="font-style:normal;font-variant:normal;font-weight:normal;font-stretch:normal;font-size:14.1111px;font-family:'Crimson Text';-inkscape-font-specification:'Crimson Text';stroke-width:0.264583"
         d="m 64.706076,62.916991 q -0.716579,0 -1.102429,0.620117 -0.37207,0.606336 -0.37207,1.005967 0,0.09646 0.08268,0.09646 h 2.687172 q 0.0689,0 0.0689,-0.137804 0,-0.440972 -0.37207,-1.005967 -0.37207,-0.578776 -0.992187,-0.578776 z m 0.137804,-0.509873 q 0.633897,0 1.11621,0.248046 0.482313,0.234267 0.73036,0.620117 0.261827,0.37207 0.37207,0.771701 0.124023,0.38585 0.124023,0.771701 0,0.275607 -0.08268,0.344509 -0.08268,0.05512 -0.316949,0.05512 h -3.472653 q -0.110243,0 -0.110243,0.0689 0,0.868164 0.523654,1.598523 0.523654,0.73036 1.515841,0.73036 0.289388,0 0.551215,-0.05512 0.261827,-0.05512 0.440972,-0.124023 0.192925,-0.08268 0.316948,-0.151584 0.137804,-0.08268 0.234266,-0.151584 l 0.09646,-0.0689 q 0.08268,0 0.08268,0.179145 0,0.110243 -0.08268,0.248047 -0.275607,0.38585 -0.813042,0.702799 -0.537434,0.303168 -1.171331,0.303168 -1.143771,0 -1.970594,-0.854383 -0.813041,-0.868164 -0.813041,-2.108397 0,-1.446939 0.7717,-2.287542 0.785482,-0.840602 1.956813,-0.840602 z" />
    </g>
  </g>
</svg>
